<svg width="26" height="20" viewBox="0 0 26 20" fill="none" xmlns="http://www.w3.org/2000/svg">
<mask id="mask0" mask-type="alpha" maskUnits="userSpaceOnUse" x="0" y="0" width="26" height="20">
<rect width="26" height="20" fill="#C4C4C4"/>
</mask>
<g mask="url(#mask0)">
<path fill-rule="evenodd" clip-rule="evenodd" d="M10.076 2.57731C10.9985 2.20529 12.0072 2 13.0663 2C17.4846 2 21.0663 5.58172 21.0663 10C21.0663 11.4623 20.6747 12.8313 19.9905 14.01L18.8742 11.8099L17.0906 12.7148L19.8055 18.0655L25.1561 15.3507L24.2512 13.5671L21.8484 14.7862C22.6248 13.3644 23.0663 11.7329 23.0663 10C23.0663 4.47715 18.5891 0 13.0663 0C11.7465 0 10.4842 0.256186 9.32796 0.722469L10.076 2.57731ZM6.05002 6.15303C5.42277 7.2943 5.0663 8.60486 5.0663 10C5.0663 14.4183 8.64802 18 13.0663 18C14.3453 18 15.5515 17.7006 16.6213 17.169L17.5113 18.96C16.1712 19.626 14.661 20 13.0663 20C7.54345 20 3.0663 15.5228 3.0663 10C3.0663 8.32981 3.47635 6.75418 4.20092 5.36952L1.80075 6.41821L1 4.5855L6.49811 2.18327L8.90035 7.68138L7.06765 8.48213L6.05002 6.15303Z" fill="black"/>
</g>
</svg>
